<svg width="128" height="128" viewBox="0 0 128 128" fill="none" xmlns="http://www.w3.org/2000/svg">
<rect width="128" height="128" fill="#F5F5F5"/>
<rect width="128" height="128" fill="white"/>
<path d="M103.5 15.5V61.8512L66 100.836L28.5 61.8512V15.5H66H103.5Z" fill="#D9D9D9" stroke="#DBA24A" stroke-width="3"/>
<path d="M51.5774 73.7023C50.7428 74.2721 49.6861 73.3854 50.1023 72.4645L70.4634 27.4126C70.7362 26.809 71.51 26.6326 72.0175 27.0584L92.4882 44.2354C92.9956 44.6612 92.9563 45.4538 92.4092 45.8273L51.5774 73.7023Z" fill="#FFFA8A" stroke="black" stroke-width="2"/>
<path d="M81.8611 35.3183L71.5679 25.9845L71.57 25.982L71.5724 25.9792L71.5748 25.9763L71.5772 25.9735L71.5796 25.9706L71.582 25.9677L71.5843 25.9649L71.5867 25.962L71.5891 25.9592L71.5915 25.9563L71.5939 25.9535L71.5963 25.9506L71.5987 25.9478L71.6011 25.9449L71.6035 25.9421L71.6059 25.9392L71.6083 25.9364L71.6107 25.9335L71.6131 25.9306L71.6155 25.9278L71.6179 25.9249L71.6203 25.9221L71.6227 25.9192L71.6251 25.9164L71.6275 25.9135L71.6299 25.9106L71.6323 25.9078L71.6347 25.9049L71.6371 25.9021L71.6395 25.8992L71.6419 25.8963L71.6443 25.8935L71.6467 25.8906L71.6491 25.8877L71.6515 25.8848L71.6539 25.882L71.6563 25.8791L71.6588 25.8762L71.6612 25.8733L71.6636 25.8704L71.666 25.8676L71.6684 25.8647L71.6709 25.8618L71.6733 25.8589L71.6757 25.856L71.6781 25.8531L71.6806 25.8502L71.683 25.8473L71.6854 25.8444L71.6879 25.8415L71.6903 25.8386L71.6928 25.8357L71.6952 25.8328L71.6977 25.8298L71.7001 25.8269L71.7026 25.824L71.705 25.8211L71.7075 25.8181L71.71 25.8152L71.7124 25.8122L71.7149 25.8093L71.7174 25.8064L71.7198 25.8034L71.7223 25.8005L71.7248 25.7975L71.7273 25.7945L71.7298 25.7916L71.7323 25.7886L71.7348 25.7856L71.7373 25.7826L71.7398 25.7797L71.7423 25.7767L71.7448 25.7737L71.7473 25.7707L71.7498 25.7677L71.7524 25.7647L71.7549 25.7617L71.7574 25.7586L71.7599 25.7556L71.7625 25.7526L71.765 25.7496L71.7676 25.7465L71.7701 25.7435L71.7727 25.7404L71.7753 25.7374L71.7778 25.7343L71.7804 25.7312L71.783 25.7282L71.7856 25.7251L71.7881 25.722L71.7907 25.7189L71.7933 25.7158L71.7959 25.7127L71.7985 25.7096L71.8012 25.7065L71.8038 25.7034L71.8064 25.7003L71.809 25.6971L71.8117 25.694L71.8143 25.6909L71.8169 25.6877L71.8196 25.6845L71.8222 25.6814L71.8249 25.6782L71.8276 25.675L71.8302 25.6718L71.8329 25.6686L71.8356 25.6654L71.8383 25.6622L71.841 25.659L71.8437 25.6558L71.8464 25.6526L71.8491 25.6493L71.8519 25.6461L71.8546 25.6428L71.8573 25.6396L71.8601 25.6363L71.8628 25.633L71.8656 25.6297L71.8683 25.6264L71.8711 25.6231L71.8739 25.6198L71.8767 25.6165L71.8795 25.6132L71.8823 25.6098L71.8851 25.6065L71.8879 25.6031L71.8907 25.5998L71.8935 25.5964L71.8964 25.593L71.8992 25.5897L71.9021 25.5863L71.9049 25.5828L71.9078 25.5794L71.9107 25.576L71.9135 25.5726L71.9164 25.5691L71.9193 25.5657L71.9222 25.5622L71.9251 25.5587L71.9281 25.5553L71.931 25.5518L71.9339 25.5483L71.9369 25.5448L71.9398 25.5412L71.9428 25.5377L71.9458 25.5342L71.9488 25.5306L71.9517 25.527L71.9547 25.5235L71.9577 25.5199L71.9608 25.5163L71.9638 25.5127L71.9668 25.5091L71.9699 25.5055L71.9729 25.5018L71.976 25.4982L71.979 25.4945L71.9821 25.4908L71.9852 25.4872L71.9883 25.4835L71.9914 25.4798L71.9945 25.476L71.9977 25.4723L72.0008 25.4686L72.0039 25.4648L72.0071 25.4611L72.0103 25.4573L72.0134 25.4535L72.0166 25.4497L72.0198 25.4459L72.023 25.4421L72.0262 25.4383L72.0295 25.4344L72.0327 25.4306L72.036 25.4267L72.0392 25.4228L72.0425 25.4189L72.0458 25.415L72.0491 25.4111L72.0524 25.4071L72.0557 25.4032L72.059 25.3992L72.0623 25.3953L72.0657 25.3913L72.069 25.3873L72.0724 25.3833L72.0758 25.3792L72.0791 25.3752L72.0825 25.3712L72.086 25.3671L72.0894 25.363L72.0928 25.3589L72.0963 25.3548L72.0997 25.3507L72.1032 25.3466L72.1067 25.3424L72.1102 25.3383L72.1137 25.3341L72.1172 25.3299L72.1207 25.3257L72.1242 25.3215L72.1278 25.3172L72.1314 25.313L72.1349 25.3087L72.1385 25.3045L72.1421 25.3002L72.1457 25.2959L72.1494 25.2915L72.153 25.2872L72.1566 25.2828L72.1603 25.2785L72.164 25.2741L72.1677 25.2697L72.1714 25.2653L72.1751 25.2609L72.1788 25.2564L72.1826 25.252L72.1863 25.2475L72.1901 25.243L72.1939 25.2385L72.1977 25.234L72.2015 25.2294L72.2053 25.2249L72.2091 25.2203L72.213 25.2157L72.2168 25.2111L72.2207 25.2065L72.2246 25.2019L72.2285 25.1972L72.2324 25.1926L72.2363 25.1879L72.2403 25.1832L72.2442 25.1785L72.2482 25.1737L72.2522 25.169L72.2562 25.1642L72.2602 25.1594L72.2643 25.1546L72.2683 25.1498L72.2724 25.145L72.2764 25.1401L72.2805 25.1352L72.2846 25.1303L72.2887 25.1254L72.2929 25.1205L72.297 25.1156L72.3012 25.1106L72.3054 25.1056L72.3095 25.1006L72.3138 25.0956L72.318 25.0906L72.3222 25.0855L72.3265 25.0805L72.3307 25.0754L72.335 25.0703L72.3393 25.0651L72.3436 25.06L72.348 25.0548L72.3523 25.0497L72.3567 25.0445L72.3611 25.0392L72.3654 25.034L72.3699 25.0288L72.3743 25.0235L72.3787 25.0182L72.3832 25.0129L72.3877 25.0075L72.3922 25.0022L72.3967 24.9968L72.4012 24.9914L72.4057 24.986L72.4103 24.9806L72.4149 24.9751L72.4194 24.9697L72.4241 24.9642L72.4287 24.9587L72.4333 24.9531L72.438 24.9476L72.4426 24.942L72.4473 24.9364L72.452 24.9308L72.4568 24.9252L72.4615 24.9195L72.4663 24.9138L72.4711 24.9081L72.4759 24.9024L72.4807 24.8967L72.4855 24.8909L72.4903 24.8852L72.4952 24.8794L72.5001 24.8735L72.505 24.8677L72.5099 24.8618L72.5149 24.856L72.5198 24.85L72.5248 24.8441L72.5298 24.8382L72.5348 24.8322L72.5398 24.8262L72.5449 24.8202L72.5499 24.8142L72.555 24.8081L72.56 24.8021L72.5651 24.7961L72.5701 24.7901L72.5751 24.7842L72.5801 24.7783L72.585 24.7723L72.59 24.7664L72.5949 24.7606L72.5998 24.7547L72.6047 24.7489L72.6096 24.7431L72.6144 24.7373L72.6193 24.7315L72.6241 24.7258L72.6289 24.72L72.6337 24.7143L72.6385 24.7086L72.6432 24.7029L72.648 24.6973L72.6527 24.6916L72.6574 24.686L72.6621 24.6804L72.6668 24.6749L72.6715 24.6693L72.6761 24.6638L72.6808 24.6582L72.6854 24.6527L72.69 24.6472L72.6946 24.6418L72.6991 24.6363L72.7037 24.6309L72.7082 24.6255L72.7128 24.6201L72.7173 24.6147L72.7218 24.6094L72.7262 24.604L72.7307 24.5987L72.7352 24.5934L72.7396 24.5881L72.744 24.5829L72.7484 24.5776L72.7528 24.5724L72.7572 24.5672L72.7615 24.562L72.7659 24.5568L72.7702 24.5516L72.7745 24.5465L72.7788 24.5414L72.7831 24.5363L72.7874 24.5312L72.7916 24.5261L72.7959 24.5211L72.8001 24.516L72.8043 24.511L72.8085 24.506L72.8127 24.501L72.8169 24.496L72.821 24.4911L72.8252 24.4861L72.8293 24.4812L72.8334 24.4763L72.8375 24.4714L72.8416 24.4665L72.8457 24.4617L72.8497 24.4568L72.8538 24.452L72.8578 24.4472L72.8619 24.4424L72.8659 24.4376L72.8699 24.4329L72.8738 24.4281L72.8778 24.4234L72.8818 24.4187L72.8857 24.414L72.8896 24.4093L72.8936 24.4046L72.8975 24.4L72.9014 24.3953L72.9052 24.3907L72.9091 24.3861L72.913 24.3815L72.9168 24.3769L72.9206 24.3724L72.9245 24.3678L72.9283 24.3633L72.9321 24.3588L72.9358 24.3542L72.9396 24.3498L72.9434 24.3453L72.9471 24.3408L72.9508 24.3364L72.9546 24.3319L72.9583 24.3275L72.962 24.3231L72.9657 24.3187L72.9693 24.3143L72.973 24.31L72.9766 24.3056L72.9803 24.3013L72.9839 24.297L72.9875 24.2926L72.9911 24.2883L72.9947 24.2841L72.9983 24.2798L73.0019 24.2755L73.0054 24.2713L73.009 24.2671L73.0125 24.2628L73.0161 24.2586L73.0196 24.2544L73.0231 24.2503L73.0266 24.2461L73.0301 24.2419L73.0335 24.2378L73.037 24.2337L73.0405 24.2296L73.0439 24.2254L73.0473 24.2214L73.0508 24.2173L73.0542 24.2132L73.0576 24.2091L73.061 24.2051L73.0644 24.2011L73.0677 24.1971L73.0711 24.193L73.0745 24.189L73.0778 24.1851L73.0811 24.1811L73.0845 24.1771L73.0878 24.1732L73.0911 24.1692L73.0944 24.1653L73.0977 24.1614L73.1009 24.1575L73.1042 24.1536L73.1075 24.1497L73.1107 24.1458L73.114 24.142L73.1172 24.1381L73.1204 24.1343L73.1236 24.1304L73.1268 24.1266L73.13 24.1228L73.1332 24.119L73.1364 24.1152L73.1396 24.1114L73.1427 24.1077L73.1459 24.1039L73.149 24.1002L73.1522 24.0964L73.1553 24.0927L73.1584 24.089L73.1615 24.0853L73.1646 24.0816L73.1677 24.0779L73.1708 24.0742L73.1739 24.0705L73.177 24.0669L73.18 24.0632L73.1831 24.0596L73.1861 24.0559L73.1892 24.0523L73.1922 24.0487L73.1952 24.0451L73.1983 24.0415L73.2013 24.0379L73.2043 24.0343L73.2073 24.0307L73.2103 24.0272L73.2133 24.0236L73.2162 24.0201L73.2192 24.0165L73.2222 24.013L73.2251 24.0095L73.2281 24.006L73.231 24.0025L73.2339 23.999L73.2369 23.9955L73.2398 23.992L73.2427 23.9885L73.2456 23.9851L73.2485 23.9816L73.2514 23.9782L73.2543 23.9747L73.2572 23.9713L73.2601 23.9678L73.2629 23.9644L73.2658 23.961L73.2687 23.9576L73.2715 23.9542L73.2744 23.9508L73.2772 23.9474L73.28 23.944L73.2829 23.9407L73.2857 23.9373L73.2885 23.9339L73.2913 23.9306L73.2941 23.9272L73.2969 23.9239L73.2997 23.9206L73.3025 23.9172L73.3053 23.9139L73.3081 23.9106L73.3109 23.9073L73.3136 23.904L73.3164 23.9007L73.3192 23.8974L73.3219 23.8941L73.3247 23.8908L73.3274 23.8876L73.3302 23.8843L73.3329 23.881L73.3356 23.8778L73.3384 23.8745L73.3411 23.8713L73.3438 23.868L73.3465 23.8648L73.3492 23.8616L73.3519 23.8583L73.3546 23.8551L73.3573 23.8519L73.36 23.8487L73.3627 23.8455L73.3654 23.8423L73.3681 23.8391L73.3708 23.8359L73.3735 23.8327L73.3761 23.8295L73.3788 23.8263L73.3815 23.8232L73.3841 23.82L73.3868 23.8168L73.3894 23.8137L73.3921 23.8105L73.3948 23.8073L73.3974 23.8042L73.4 23.801L73.4027 23.7979L73.4053 23.7947L73.408 23.7916L73.4106 23.7885L73.4132 23.7853L73.4158 23.7822L73.4185 23.7791L73.4211 23.776L73.4237 23.7728L73.4263 23.7697L73.4289 23.7666L73.4315 23.7635L73.4341 23.7604L73.4368 23.7573L73.4394 23.7542L73.442 23.7511L73.4446 23.748L73.4472 23.7449L73.4498 23.7418L73.4523 23.7387L73.4549 23.7356L73.4575 23.7325L73.4601 23.7294L73.4627 23.7263L73.4653 23.7233L73.4679 23.7202L73.4705 23.7171L73.473 23.714L73.4756 23.711L73.4782 23.7079L73.4808 23.7048L73.4834 23.7017L73.4859 23.6987L73.4885 23.6956L73.4911 23.6925L73.4937 23.6895L73.4962 23.6864L73.4988 23.6833L73.5014 23.6803L73.5039 23.6772L73.5065 23.6742L73.5091 23.6711L73.5116 23.668L73.5142 23.665L73.5168 23.6619L73.5193 23.6589L73.5219 23.6558L73.5245 23.6527L73.527 23.6497L73.5296 23.6466L73.5322 23.6436L73.5347 23.6405L73.5373 23.6374L73.5399 23.6344L73.5424 23.6313L73.545 23.6283L73.5476 23.6252L73.5501 23.6221L73.5527 23.6191L73.5553 23.616L73.5579 23.613L73.5604 23.6099L73.563 23.6068L73.5656 23.6038L73.5681 23.6007L73.5707 23.5976L73.5733 23.5946L73.5759 23.5915L73.5784 23.5884L73.581 23.5853L73.5836 23.5823L73.5862 23.5792L73.5888 23.5761L73.5913 23.573L73.5939 23.57L73.5965 23.5669L73.5991 23.5638L73.6017 23.5607L73.6043 23.5576L73.6069 23.5545L73.6095 23.5514L73.6121 23.5483L73.6147 23.5452L73.6173 23.5421L73.6199 23.539L73.6225 23.5359L73.6251 23.5328L73.6277 23.5297L73.6303 23.5266L73.6329 23.5235L73.6355 23.5204L73.6382 23.5173L73.6408 23.5141L73.6434 23.511L73.646 23.5079L73.6487 23.5047L73.6513 23.5016L73.6539 23.4985L73.6566 23.4953L73.6592 23.4922L73.6618 23.489L73.6645 23.4859L73.6671 23.4827L73.6698 23.4795L73.6725 23.4764L73.6751 23.4732L73.6778 23.47L73.6804 23.4669L73.6831 23.4637L73.6858 23.4605L73.6885 23.4573L73.6912 23.4541L73.6938 23.4509L73.6965 23.4477L73.6992 23.4445L73.7019 23.4413L73.7046 23.438L73.7073 23.4348L73.71 23.4316L73.7127 23.4284L73.7155 23.4251L73.7182 23.4219L73.7209 23.4186L73.7236 23.4154L73.7264 23.4121L73.7291 23.4088L73.7319 23.4056L73.7346 23.4023L73.7374 23.399L73.7401 23.3957L73.7429 23.3924L73.7457 23.3891L73.7484 23.3858L73.7512 23.3825L73.754 23.3792L73.7568 23.3759L73.7596 23.3725L73.7624 23.3692L73.7652 23.3659L73.768 23.3625L73.7682 23.3622C75.4881 24.0154 77.3524 24.9379 79.2759 26.0956C81.4406 27.3984 83.6255 28.9663 85.7031 30.7096C87.7808 32.453 89.7043 34.3325 91.3632 36.238C92.9636 38.0763 94.2788 39.894 95.247 41.5913C95.267 41.8593 95.2795 42.0501 95.2827 42.2033C95.2866 42.3913 95.2737 42.4558 95.2683 42.4766C95.2681 42.4775 95.2679 42.4783 95.2677 42.4792C95.2594 42.5117 95.2483 42.5557 94.8419 43.0401L93.2808 44.9005L81.8611 35.3183Z" fill="#DBA24A" stroke="black" stroke-width="2"/>
<path d="M78.7311 41.8297C77.0487 43.8346 77.3475 46.8694 79.4177 48.6065C81.4879 50.3436 84.5284 50.1108 86.2107 48.1059C87.8931 46.1009 87.5943 43.0662 85.5242 41.3291C83.454 39.592 80.4134 39.8247 78.7311 41.8297Z" fill="#E12301" stroke="black" stroke-width="0.5"/>
<path d="M68.7966 36.1044C67.1142 38.1094 67.413 41.1441 69.4831 42.8812C71.5533 44.6183 74.5939 44.3855 76.2762 42.3806C77.9586 40.3757 77.6598 37.3409 75.5896 35.6038C73.5194 33.8667 70.4789 34.0995 68.7966 36.1044Z" fill="#E12301" stroke="black" stroke-width="0.5"/>
<mask id="path-6-inside-1_0_1" fill="white">
<path d="M59.647 51.7329C60.8641 52.3379 62.2603 52.4428 63.5287 52.0245C64.797 51.6063 65.8335 50.6992 66.4102 49.5028C66.9868 48.3064 67.0564 46.9187 66.6036 45.6449C66.1508 44.3712 65.2127 43.3157 63.9956 42.7108L61.8213 47.2218L59.647 51.7329Z"/>
</mask>
<path d="M59.647 51.7329C60.8641 52.3379 62.2603 52.4428 63.5287 52.0245C64.797 51.6063 65.8335 50.6992 66.4102 49.5028C66.9868 48.3064 67.0564 46.9187 66.6036 45.6449C66.1508 44.3712 65.2127 43.3157 63.9956 42.7108L61.8213 47.2218L59.647 51.7329Z" fill="#E12301" stroke="black" mask="url(#path-6-inside-1_0_1)"/>
<path d="M60.1935 54.3411C58.6887 56.1345 58.9553 58.8501 60.8084 60.405C62.6615 61.9599 65.3821 61.7509 66.8869 59.9575C68.3918 58.1641 68.1251 55.4485 66.2721 53.8936C64.419 52.3387 61.6984 52.5477 60.1935 54.3411Z" fill="#E12301" stroke="black" stroke-width="0.5"/>
<path d="M69.7665 49.3197C68.6167 50.69 68.819 52.7672 70.2379 53.9578C71.6567 55.1483 73.7375 54.9869 74.8873 53.6166C76.0372 52.2463 75.8348 50.169 74.416 48.9785C72.9972 47.788 70.9163 47.9494 69.7665 49.3197Z" fill="#E12301" stroke="black" stroke-width="0.5"/>
<rect x="51.4371" y="37.7758" width="5.03846" height="20.7727" transform="rotate(130 51.4371 37.7758)" fill="#FFFA8A" stroke="black" stroke-width="0.5"/>
<rect x="59.8776" y="32.8083" width="23.5" height="4.40909" transform="rotate(130 59.8776 32.8083)" fill="#DBA24A" stroke="black" stroke-width="0.5"/>
<rect x="85.2155" y="63.7093" width="8.73077" height="40.4091" transform="rotate(130 85.2155 63.7093)" fill="#D9D9D9" stroke="black" stroke-width="0.5"/>
<path d="M85.4841 64.1671L88.4789 72.1462L80.101 70.5824L85.4841 64.1671Z" fill="#D9D9D9" stroke="black" stroke-width="0.5"/>
<path d="M81.9742 66.6881L51.8896 41.4441" stroke="#B6B3B3" stroke-width="0.5"/>
<path d="M86.9884 70.8955L83.2278 67.74" stroke="#B6B3B3" stroke-width="0.5"/>
<path d="M53.4178 38.35L49.2644 43.2998L48.0109 42.248L48.5708 40.3078L50.3509 38.1865L52.1643 37.2982L53.4178 38.35Z" fill="#E12301"/>
</svg>
